<?xml version="1.0" encoding="utf-8"?>
<!-- Generator: Adobe Illustrator 16.0.0, SVG Export Plug-In . SVG Version: 6.00 Build 0)  -->
<!DOCTYPE svg PUBLIC "-//W3C//DTD SVG 1.1//EN" "http://www.w3.org/Graphics/SVG/1.1/DTD/svg11.dtd">
<svg version="1.1" id="Layer_1" xmlns="http://www.w3.org/2000/svg" xmlns:xlink="http://www.w3.org/1999/xlink" x="0px" y="0px"
	 width="50px" height="50px" viewBox="0 0 50 50" enable-background="new 0 0 50 50" xml:space="preserve">
<circle fill="#D09B2C" cx="25.082" cy="25" r="24.75"/>
<g transform="translate(-9333.75 -892.5)">
	<path fill="#FFFFFF" d="M9358.639,934.357c-1.085,0.059-2.013-0.771-2.076-1.854v-30.895c0.063-1.084,0.991-1.912,2.076-1.854
		c1.083-0.058,2.011,0.77,2.075,1.854v30.895C9360.649,933.587,9359.722,934.416,9358.639,934.357z"/>
	<path fill="#FFFFFF" d="M9374.086,919.132h-30.895c-1.084-0.065-1.912-0.991-1.854-2.076c-0.058-1.083,0.771-2.011,1.854-2.076
		h30.895c1.083,0.064,1.911,0.992,1.853,2.076C9375.997,918.141,9375.169,919.066,9374.086,919.132z"/>
</g>
</svg>
