<?xml version="1.0" encoding="utf-8"?>
<!-- Generator: Adobe Illustrator 16.0.0, SVG Export Plug-In . SVG Version: 6.00 Build 0)  -->
<!DOCTYPE svg PUBLIC "-//W3C//DTD SVG 1.1//EN" "http://www.w3.org/Graphics/SVG/1.1/DTD/svg11.dtd">
<svg version="1.1" id="Layer_1" xmlns="http://www.w3.org/2000/svg" xmlns:xlink="http://www.w3.org/1999/xlink" x="0px" y="0px"
	 width="50px" height="44.891px" viewBox="0 0 50 44.891" enable-background="new 0 0 50 44.891" xml:space="preserve">
<path fill="#D09A2D" d="M42.429,44.891H7.571c-2.697,0.02-5.196-1.41-6.547-3.745c-1.367-2.309-1.367-5.18,0-7.489L18.451,3.745
	c2.127-3.616,6.782-4.823,10.398-2.696c1.113,0.655,2.041,1.583,2.695,2.696l17.43,29.911c1.365,2.311,1.365,5.181,0,7.49
	C47.623,43.481,45.125,44.91,42.429,44.891z M25.004,4.092c-1.224-0.01-2.358,0.64-2.971,1.7L4.604,35.703
	c-0.621,1.048-0.621,2.352,0,3.399c0.612,1.06,1.746,1.709,2.97,1.7h34.858c1.223,0.009,2.357-0.641,2.969-1.7
	c0.621-1.048,0.621-2.352,0-3.399L27.97,5.791C27.359,4.733,26.226,4.084,25.004,4.092z"/>
</svg>
