<?xml version="1.0" encoding="utf-8"?>
<!-- Generator: Adobe Illustrator 16.0.0, SVG Export Plug-In . SVG Version: 6.00 Build 0)  -->
<!DOCTYPE svg PUBLIC "-//W3C//DTD SVG 1.1//EN" "http://www.w3.org/Graphics/SVG/1.1/DTD/svg11.dtd">
<svg version="1.1" id="Layer_1" xmlns="http://www.w3.org/2000/svg" xmlns:xlink="http://www.w3.org/1999/xlink" x="0px" y="0px"
	 width="50px" height="60.715px" viewBox="0 0 50 60.715" enable-background="new 0 0 50 60.715" xml:space="preserve">
<g>
	<path fill="#D09A2D" d="M12.13,51.075c0-2.65-0.023-5.301,0.016-7.951c0.081-0.551-0.247-1.078-0.775-1.252
		c-0.884-0.328-1.773-0.648-2.674-0.927c-3.942-1.214-4.877-2.489-4.821-6.627c0.008-0.595,0.007-1.19,0.02-1.784
		c0.031-1.064-0.308-2.105-0.957-2.948c-0.7-0.93-1.391-1.863-2.031-2.832c-1.218-1.648-1.209-3.9,0.021-5.54
		c0.633-0.941,1.312-1.852,1.993-2.759c0.654-0.871,0.998-1.935,0.978-3.023c0-1.4,0-2.813,0.13-4.207
		c0.12-1.475,1.077-2.75,2.459-3.277c1.14-0.49,2.31-0.907,3.502-1.249c1.318-0.352,2.455-1.186,3.187-2.337
		c0.565-0.857,1.173-1.685,1.822-2.48c1.162-1.62,3.248-2.286,5.134-1.641c0.959,0.277,1.913,0.578,2.849,0.925
		c1.27,0.496,2.677,0.508,3.955,0.033c1.169-0.416,2.357-0.771,3.563-1.065c1.424-0.397,2.949,0.053,3.93,1.159
		c0.829,0.889,1.581,1.846,2.248,2.862c0.801,1.301,2.08,2.237,3.563,2.606c1.015,0.277,2.011,0.622,2.979,1.03
		c1.787,0.663,2.949,2.395,2.885,4.3c0.037,1.08,0.033,2.164,0.004,3.245c-0.043,1.172,0.336,2.321,1.066,3.239
		c0.612,0.79,1.2,1.6,1.771,2.421c1.418,1.79,1.398,4.325-0.047,6.093c-0.549,0.77-1.101,1.541-1.682,2.285
		c-0.762,0.961-1.158,2.162-1.119,3.387c0.027,1.349-0.016,2.699-0.129,4.044c-0.127,1.473-1.084,2.744-2.465,3.273
		c-1.119,0.465-2.262,0.871-3.423,1.221c-2.192,0.699-2.2,0.689-2.2,2.949v14.44c0,0.216,0,0.433,0,0.649
		c-0.037,1.25-0.77,1.699-1.889,1.136c-3.444-1.748-6.881-3.509-10.313-5.283c-0.409-0.251-0.925-0.251-1.334,0
		c-3.355,1.743-6.727,3.455-10.093,5.177c-1.41,0.721-2.12,0.299-2.123-1.261C12.125,56.429,12.125,53.751,12.13,51.075
		 M43.861,14.124c0-0.6,0-1.19,0-1.785c0.1-1.214-0.684-2.326-1.861-2.64c-0.87-0.292-1.732-0.613-2.62-0.843
		c-1.854-0.476-3.452-1.649-4.461-3.277c-0.567-0.855-1.181-1.68-1.835-2.471c-0.564-0.736-1.537-1.029-2.414-0.727
		c-1.01,0.294-2.018,0.6-3.006,0.965c-1.709,0.655-3.6,0.655-5.309,0c-0.759-0.282-1.528-0.539-2.3-0.778
		c-1.82-0.561-2.557-0.322-3.7,1.212c-0.566,0.758-1.1,1.541-1.641,2.316c-0.827,1.22-2.045,2.121-3.454,2.554
		c-1.106,0.347-2.21,0.708-3.31,1.083c-1.114,0.313-1.858,1.361-1.787,2.516c0,0.892-0.034,1.787,0.012,2.677
		c0.131,1.938-0.499,3.852-1.756,5.333c-0.592,0.739-1.147,1.506-1.663,2.3c-0.64,0.856-0.64,2.031,0,2.888
		c0.653,0.96,1.34,1.9,2.038,2.827c0.926,1.215,1.412,2.708,1.376,4.234c-0.011,1.056,0,2.111-0.012,3.164
		c-0.095,1.212,0.683,2.32,1.854,2.644c0.842,0.291,1.684,0.59,2.545,0.812c1.86,0.455,3.47,1.617,4.487,3.24
		c0.5,0.77,1.058,1.5,1.6,2.24c0.654,0.988,1.909,1.389,3.014,0.96c0.98-0.303,1.954-0.624,2.923-0.963
		c1.537-0.563,3.222-0.575,4.767-0.032c0.944,0.324,1.887,0.656,2.846,0.938c1.219,0.576,2.676,0.102,3.322-1.083
		c0.512-0.662,1-1.345,1.457-2.048c1.015-1.624,2.62-2.789,4.479-3.252c0.988-0.271,1.962-0.599,2.915-0.978
		c0.897-0.325,1.488-1.187,1.469-2.142c0.051-0.864,0.054-1.73,0.007-2.596c-0.187-2.128,0.502-4.241,1.908-5.85
		c0.561-0.694,1.078-1.422,1.55-2.18c0.585-0.822,0.587-1.923,0.007-2.749c-0.359-0.604-0.762-1.179-1.207-1.723
		c-1.738-1.805-2.561-4.303-2.236-6.787 M35.573,45.547c-0.249,0.273-0.376,0.399-0.488,0.539c-1.2,1.662-3.351,2.336-5.285,1.66
		c-1.062-0.3-2.11-0.66-3.157-1.015c-1.025-0.366-2.144-0.376-3.176-0.028c-1.176,0.394-2.353,0.795-3.552,1.108
		c-1.736,0.526-3.617-0.05-4.761-1.457c-0.2-0.228-0.414-0.449-0.7-0.759v12.078c0.341-0.159,0.608-0.275,0.867-0.407
		c2.884-1.474,5.779-2.929,8.641-4.442c0.654-0.391,1.471-0.385,2.119,0.016c2.843,1.494,5.711,2.94,8.571,4.4
		c0.279,0.143,0.563,0.277,0.916,0.451L35.573,45.547z"/>
	<path fill="#D09A2D" d="M36.855,61.437c-0.414-0.013-0.821-0.122-1.187-0.319c-3.032-1.539-6.629-3.371-10.318-5.287
		c-0.201-0.143-0.47-0.143-0.67,0c-2.551,1.322-5.143,2.647-7.651,3.93l-2.444,1.248c-0.445,0.253-0.944,0.396-1.456,0.421
		c-0.514,0-1.711-0.226-1.715-2.321c0-1.889,0-3.809,0-5.665c0-0.79,0-1.58,0-2.37c0-0.713,0-1.426,0-2.139
		c0-1.908-0.009-3.88,0.02-5.823c0.006-0.428-0.106-0.491-0.306-0.565c-0.834-0.31-1.731-0.635-2.635-0.912
		c-2.264-0.7-3.5-1.416-4.28-2.482c-0.78-1.066-1.082-2.471-1.05-4.843c0-0.233,0-0.47,0.007-0.7c0-0.355,0.005-0.725,0.013-1.088
		c0.027-0.902-0.261-1.786-0.814-2.5c-0.761-1.007-1.44-1.917-2.064-2.867c-1.375-1.892-1.366-4.457,0.024-6.339
		c0.633-0.942,1.314-1.857,2.015-2.79c0.562-0.747,0.856-1.661,0.839-2.595v-0.242c0-1.319,0.008-2.682,0.132-4.029
		c0.146-1.735,1.265-3.236,2.886-3.87c1.167-0.503,2.366-0.93,3.588-1.279c1.153-0.301,2.147-1.029,2.784-2.037
		c0.578-0.879,1.2-1.728,1.865-2.543c0.972-1.333,2.517-2.125,4.166-2.138c0.586,0.005,1.168,0.092,1.73,0.259
		c1.1,0.317,2.046,0.625,2.9,0.942c0.566,0.218,1.167,0.333,1.773,0.337c0.576-0.003,1.147-0.107,1.688-0.307
		c1.193-0.424,2.406-0.787,3.635-1.087c0.404-0.101,0.82-0.153,1.238-0.155c1.294,0.003,2.526,0.557,3.389,1.522
		c0.856,0.918,1.633,1.908,2.322,2.958c0.703,1.15,1.832,1.977,3.141,2.3c1.045,0.286,2.07,0.64,3.07,1.06
		c2.052,0.77,3.393,2.754,3.34,4.946c0.035,0.985,0.037,2.061,0.006,3.288c-0.038,1.006,0.287,1.993,0.915,2.78
		c0.549,0.709,1.118,1.487,1.791,2.449c0.751,1.004,1.165,2.22,1.183,3.473c-0.041,1.25-0.471,2.457-1.229,3.452
		c-0.545,0.764-1.107,1.553-1.7,2.311c-0.659,0.833-1.001,1.873-0.967,2.936c0.028,1.375-0.017,2.75-0.132,4.121
		c-0.154,1.731-1.273,3.228-2.893,3.863c-1.055,0.441-2.132,0.827-3.227,1.157l-0.313,0.101c-0.542,0.113-1.059,0.326-1.523,0.625
		c-0.145,0.529-0.188,1.08-0.131,1.625v14.442c0,0.062,0,0.125,0,0.187c0,0.156,0,0.318,0,0.483
		C38.559,60.891,37.671,61.437,36.855,61.437z M25.014,54.282c0.35,0.008,0.693,0.1,1,0.271c3.685,1.913,7.277,3.741,10.307,5.28
		c0.163,0.094,0.346,0.15,0.535,0.164c0.063,0.01,0.125-0.018,0.162-0.068c0.107-0.186,0.158-0.397,0.146-0.611
		c0-0.139,0-0.281,0-0.431c0-0.065,0-0.132,0-0.2V44.247c-0.13-0.85,0.015-1.717,0.411-2.478c0.408-0.556,1.06-0.765,2.244-1.144
		l0.313-0.101c1.048-0.313,2.078-0.681,3.089-1.101c1.143-0.42,1.938-1.467,2.035-2.68c0.111-1.32,0.152-2.645,0.125-3.969
		c-0.043-1.393,0.408-2.756,1.275-3.847c0.572-0.733,1.127-1.509,1.662-2.26c1.262-1.522,1.277-3.723,0.037-5.263
		c-0.658-0.942-1.215-1.7-1.75-2.393c-0.83-1.051-1.261-2.362-1.217-3.7c0.03-1.2,0.029-2.245-0.005-3.2
		c0.075-1.619-0.91-3.099-2.433-3.656c-0.94-0.397-1.906-0.731-2.891-1C38.404,7.043,36.975,6,36.075,4.549
		c-0.646-0.981-1.372-1.907-2.173-2.766c-0.589-0.673-1.439-1.06-2.334-1.062c-0.302,0-0.602,0.036-0.895,0.108
		c-1.182,0.291-2.348,0.641-3.492,1.05c-0.697,0.254-1.432,0.386-2.174,0.39c-0.778-0.005-1.55-0.15-2.278-0.427
		c-0.82-0.3-1.735-0.6-2.8-0.908c-0.432-0.128-0.88-0.196-1.33-0.2c-1.212,0.015-2.344,0.61-3.043,1.6
		c-0.634,0.777-1.228,1.585-1.779,2.423c-0.825,1.297-2.105,2.237-3.59,2.636C9.026,7.725,7.887,8.131,6.777,8.609
		c-1.143,0.418-1.936,1.468-2.026,2.682c-0.118,1.283-0.122,2.614-0.126,3.9v0.243c0.021,1.245-0.376,2.461-1.127,3.455
		c-0.689,0.917-1.358,1.816-1.971,2.729c-1.068,1.397-1.076,3.334-0.018,4.74c0.607,0.918,1.268,1.81,2.007,2.8
		c0.744,0.972,1.132,2.17,1.1,3.394c-0.008,0.354-0.01,0.717-0.013,1.067c0,0.236,0,0.473-0.007,0.711
		c-0.051,3.811,0.674,4.809,4.313,5.93c0.938,0.289,1.858,0.621,2.713,0.939c0.813,0.275,1.33,1.074,1.245,1.93
		c-0.028,1.93-0.024,3.899-0.019,5.8c0,0.714,0,1.428,0,2.142c0,0.79,0,1.58,0,2.371c0,1.855,0,3.773,0,5.661
		c-0.025,0.282,0.024,0.565,0.142,0.823c0.027,0.044,0.037,0.06,0.132,0.06c0.283-0.026,0.556-0.116,0.8-0.263l2.444-1.249
		c2.509-1.281,5.1-2.604,7.644-3.925C24.318,54.379,24.663,54.288,25.014,54.282z M36.294,58.85l-1.038-0.51l-0.326-0.159
		c-0.209-0.101-0.406-0.2-0.601-0.3l-2.22-1.129c-2.088-1.063-4.248-2.164-6.359-3.273c-0.227-0.135-0.483-0.211-0.747-0.223
		c-0.247,0.009-0.487,0.08-0.7,0.205c-2.148,1.136-4.348,2.256-6.476,3.338c-0.726,0.369-1.45,0.738-2.174,1.109
		c-0.185,0.094-0.374,0.18-0.573,0.272l-0.315,0.146l-1.027,0.482V43.754l1.25,1.354l0.267,0.287c0.162,0.174,0.3,0.325,0.442,0.48
		c0.701,0.876,1.757,1.39,2.878,1.4c0.392-0.004,0.783-0.057,1.162-0.158c1.077-0.283,2.164-0.646,3.216-1l0.291-0.101
		c0.566-0.191,1.16-0.29,1.758-0.291c0.639,0.004,1.273,0.112,1.877,0.321l0.137,0.045c0.978,0.33,1.988,0.673,2.988,0.959
		c0.455,0.135,0.926,0.207,1.4,0.213c1.24-0.012,2.4-0.619,3.117-1.631c0.088-0.108,0.174-0.2,0.291-0.329
		c0.063-0.067,0.136-0.146,0.225-0.244l1.254-1.384L36.294,58.85z M25.004,51.815c0.497,0.011,0.984,0.145,1.417,0.389
		c2.101,1.105,4.259,2.199,6.343,3.266l2.09,1.064v-9.156c-0.94,0.863-2.172,1.338-3.447,1.33c-0.609-0.005-1.216-0.095-1.801-0.268
		c-1.031-0.3-2.059-0.643-3.051-0.979l-0.138-0.045c-0.455-0.16-0.934-0.242-1.416-0.246c-0.442,0.002-0.881,0.074-1.3,0.218
		l-0.29,0.1c-1.074,0.359-2.185,0.731-3.308,1.025c-0.498,0.134-1.011,0.202-1.527,0.206c-1.26,0.004-2.474-0.469-3.4-1.322v9.132
		l2-1.017c2.123-1.08,4.318-2.2,6.456-3.328C24.052,51.95,24.523,51.823,25.004,51.815z M31.43,46.443L31.43,46.443
		c-0.488-0.013-0.973-0.095-1.438-0.245c-0.854-0.25-1.7-0.543-2.525-0.824l-0.353-0.121c-0.674-0.236-1.385-0.358-2.099-0.361
		c-0.75,0.004-1.494,0.136-2.2,0.39c-0.927,0.327-1.92,0.654-2.949,0.972c-0.381,0.122-0.778,0.186-1.177,0.189
		c-1.053-0.011-2.034-0.539-2.622-1.413l-0.279-0.376c-0.454-0.611-0.924-1.242-1.35-1.9c-0.918-1.472-2.376-2.525-4.063-2.934
		c-0.822-0.212-1.627-0.49-2.405-0.761l-0.2-0.068c-1.465-0.421-2.439-1.806-2.339-3.327c0.005-0.513,0.005-1.037,0.006-1.543
		c0-0.531,0-1.08,0.006-1.621c0.036-1.369-0.399-2.708-1.232-3.795c-0.827-1.107-1.48-2.014-2.052-2.854
		c-0.804-1.1-0.804-2.594,0-3.694c0.529-0.813,1.099-1.599,1.707-2.355c1.142-1.342,1.713-3.079,1.592-4.837
		c-0.035-0.688-0.027-1.378-0.019-2.045c0-0.224,0.005-0.448,0.006-0.671c-0.016-0.708,0.188-1.402,0.586-1.988
		c0.419-0.571,1.01-0.995,1.686-1.207c1.052-0.361,2.172-0.727,3.329-1.086c1.258-0.384,2.345-1.189,3.079-2.28
		c0.14-0.2,0.28-0.4,0.419-0.6c0.4-0.571,0.808-1.161,1.234-1.732c0.574-1.036,1.637-1.707,2.819-1.778
		c0.569,0.018,1.133,0.123,1.672,0.309c0.847,0.261,1.613,0.52,2.341,0.791c0.765,0.291,1.576,0.442,2.394,0.447
		c0.825-0.006,1.644-0.157,2.417-0.447c1.1-0.4,2.207-0.734,3.053-0.98c0.302-0.09,0.615-0.136,0.932-0.138
		c0.877,0,1.703,0.407,2.24,1.1c0.67,0.81,1.298,1.655,1.879,2.532c0.911,1.478,2.359,2.544,4.041,2.975
		c0.705,0.183,1.399,0.421,2.062,0.65c0.2,0.07,0.399,0.139,0.606,0.207c1.471,0.411,2.452,1.799,2.349,3.323
		c0,0.408,0,0.824,0,1.226c0,0.185,0,0.369,0,0.553v0.049l-0.007,0.049c-0.295,2.278,0.465,4.566,2.066,6.215
		c0.432,0.52,0.824,1.072,1.172,1.652l0.101,0.158c0.729,1.064,0.725,2.468-0.011,3.528c-0.486,0.782-1.021,1.534-1.6,2.25
		c-1.285,1.465-1.914,3.394-1.74,5.334c0.051,0.886,0.051,1.773,0,2.659v0.016c0.01,1.244-0.764,2.359-1.933,2.785
		c-0.978,0.389-1.976,0.723-2.989,1c-1.686,0.416-3.142,1.472-4.06,2.944c-0.435,0.677-0.923,1.364-1.493,2.1
		C33.52,45.797,32.523,46.389,31.43,46.443z M25.017,43.45c0.874,0.004,1.741,0.152,2.565,0.439l0.354,0.122
		c0.806,0.276,1.639,0.563,2.461,0.8c0.335,0.109,0.684,0.172,1.035,0.186l0,0c0.471,0,0.852-0.162,1.516-1.019
		c0.544-0.7,1.008-1.356,1.42-2c1.115-1.771,2.87-3.045,4.9-3.558c0.963-0.265,1.911-0.583,2.84-0.953
		c0.63-0.223,1.04-0.832,1.01-1.5v-0.016c0.049-0.832,0.051-1.667,0.008-2.5c-0.195-2.314,0.553-4.61,2.075-6.366
		c0.542-0.671,1.043-1.375,1.5-2.107c0.433-0.585,0.433-1.384,0-1.969L46.6,22.85c-0.31-0.518-0.658-1.012-1.041-1.478
		c-1.871-1.944-2.76-4.633-2.414-7.309c0-0.167,0-0.334,0-0.5c0-0.406,0-0.825,0-1.24c0.096-0.899-0.489-1.731-1.369-1.946
		c-0.205-0.069-0.41-0.14-0.615-0.211c-0.67-0.231-1.301-0.449-1.955-0.618c-2.029-0.512-3.78-1.791-4.885-3.568
		c-0.554-0.834-1.151-1.639-1.791-2.41c-0.262-0.359-0.68-0.572-1.125-0.573c-0.18,0.002-0.357,0.029-0.529,0.081
		c-0.823,0.24-1.9,0.564-2.96,0.95c-0.932,0.348-1.917,0.528-2.912,0.534c-0.989-0.003-1.97-0.184-2.896-0.533
		c-0.7-0.261-1.443-0.512-2.263-0.765c-0.402-0.141-0.822-0.224-1.247-0.245c-0.511,0-0.908,0.185-1.665,1.2
		c-0.412,0.552-0.816,1.132-1.206,1.693c-0.141,0.2-0.282,0.402-0.423,0.606c-0.92,1.349-2.271,2.346-3.83,2.828
		c-1.144,0.356-2.25,0.717-3.289,1.073c-0.827,0.21-1.377,0.99-1.3,1.839c0,0.227,0,0.454-0.006,0.682
		c-0.008,0.645-0.015,1.312,0.017,1.955c0.135,2.117-0.553,4.205-1.92,5.827c-0.595,0.721-1.127,1.5-1.62,2.239
		c-0.474,0.612-0.477,1.467-0.006,2.082c0.558,0.821,1.2,1.711,2.018,2.8c1.02,1.343,1.556,2.991,1.521,4.676
		c-0.006,0.535-0.006,1.08-0.006,1.606c0,0.511,0,1.037-0.006,1.557c-0.09,0.898,0.493,1.727,1.369,1.947l0.2,0.067
		c0.751,0.261,1.528,0.53,2.294,0.728c2.034,0.504,3.793,1.774,4.911,3.546c0.4,0.618,0.857,1.231,1.3,1.825l0.282,0.379
		c0.32,0.506,0.873,0.815,1.471,0.824c0.255-0.004,0.509-0.046,0.752-0.125c1.012-0.312,1.986-0.633,2.9-0.953
		c0.855-0.307,1.755-0.465,2.663-0.469L25.017,43.45z"/>
	<path fill="#D09A2D" d="M41.189,24.009c0,8.937-7.246,16.182-16.183,16.182c-8.937,0-16.182-7.245-16.182-16.182
		S16.07,7.827,25.007,7.827c0.061,0,0.122,0,0.182,0.001C34.059,7.919,41.197,15.139,41.189,24.009 M24.978,37.894
		c7.676,0.013,13.91-6.201,13.922-13.878c0.012-7.677-6.201-13.91-13.878-13.922c-7.677-0.012-13.91,6.201-13.922,13.878
		c0,0.007,0,0.015,0,0.022C11.111,31.657,17.314,37.871,24.978,37.894"/>
	<path fill="#D09A2D" d="M25.091,40.879h-0.156c-2.29-0.016-4.552-0.492-6.654-1.4c-8.55-3.727-12.46-13.68-8.733-22.231
		c2.687-6.163,8.773-10.146,15.496-10.14h0.154c2.238,0.019,4.45,0.492,6.5,1.391c4.015,1.758,7.206,4.986,8.919,9.021
		c0.869,2.054,1.308,4.265,1.289,6.495c-0.018,4.479-1.803,8.77-4.969,11.938C33.807,39.114,29.54,40.888,25.091,40.879z
		 M25.043,8.549C16.514,8.458,9.525,15.3,9.435,23.83c-0.09,8.529,6.751,15.517,15.28,15.607c0.076,0.001,0.152,0.001,0.228,0.001
		c4.116,0.048,8.076-1.576,10.973-4.5c2.897-2.902,4.531-6.832,4.547-10.933c0.018-2.034-0.383-4.05-1.176-5.924
		c-1.568-3.694-4.49-6.649-8.167-8.26C29.246,9,27.226,8.567,25.18,8.55L25.043,8.549z M25.086,38.616h-0.115
		c-8.074-0.027-14.598-6.593-14.572-14.667c0.026-8.074,6.592-14.598,14.666-14.572h0.181c1.938,0.021,3.852,0.438,5.622,1.225
		c3.471,1.545,6.217,4.363,7.672,7.873c0.745,1.795,1.12,3.722,1.101,5.666C39.554,32.129,33.075,38.573,25.086,38.616z
		 M25.066,10.815c-7.279-0.022-13.197,5.861-13.219,13.14c-0.022,7.278,5.86,13.197,13.139,13.22c3.489,0.025,6.84-1.354,9.3-3.826
		c2.47-2.437,3.874-5.751,3.905-9.22c0.02-1.749-0.315-3.484-0.985-5.1c-1.313-3.167-3.789-5.711-6.92-7.108
		c-1.593-0.707-3.313-1.081-5.056-1.1L25.066,10.815z"/>
</g>
</svg>
