<?xml version="1.0" encoding="utf-8"?>
<!-- Generator: Adobe Illustrator 16.0.0, SVG Export Plug-In . SVG Version: 6.00 Build 0)  -->
<!DOCTYPE svg PUBLIC "-//W3C//DTD SVG 1.1//EN" "http://www.w3.org/Graphics/SVG/1.1/DTD/svg11.dtd">
<svg version="1.1" id="Layer_1" xmlns="http://www.w3.org/2000/svg" xmlns:xlink="http://www.w3.org/1999/xlink" x="0px" y="0px"
	 width="50px" height="43.221px" viewBox="0 0 50 43.221" enable-background="new 0 0 50 43.221" xml:space="preserve">
<g transform="translate(2 2)">
	<path fill="#D09A2D" d="M4.591-2h36.815c3.64,0.004,6.59,2.953,6.594,6.593v22.243c-0.004,3.64-2.954,6.589-6.594,6.593H19.674
		l-7.187,7.187c-0.807,0.807-2.114,0.807-2.92,0.001c-0.388-0.388-0.605-0.913-0.605-1.461v-5.727h-4.37
		c-3.639-0.005-6.587-2.954-6.591-6.593V4.593C-1.995,0.954,0.953-1.994,4.591-2z M41.406,29.301
		c1.359-0.002,2.461-1.103,2.463-2.462V4.595c-0.002-1.359-1.104-2.46-2.463-2.462H4.591C3.232,2.135,2.132,3.236,2.13,4.595v22.243
		c0.002,1.359,1.103,2.46,2.461,2.462h6.436c1.141-0.001,2.065,0.924,2.065,2.064l0,0v2.806l4.267-4.266
		c0.388-0.386,0.913-0.602,1.46-0.6L41.406,29.301z"/>
	<g transform="translate(8.075 13.291)">
		<circle fill="#D09A2D" cx="2.474" cy="2.474" r="1.974"/>
		<path fill="#D09A2D" d="M2.474,0c1.367,0,2.474,1.107,2.474,2.475c0,1.366-1.107,2.474-2.474,2.474C1.108,4.948,0,3.841,0,2.474
			l0,0C0.002,1.108,1.108,0.002,2.474,0z M2.474,3.948c0.814,0,1.474-0.66,1.474-1.474C3.948,1.66,3.288,1,2.474,1
			C1.66,1,1,1.66,1,2.474C1.001,3.288,1.66,3.947,2.474,3.948z"/>
		<circle fill="#D09A2D" cx="14.393" cy="2.547" r="1.974"/>
		<path fill="#D09A2D" d="M14.393,0.073c1.366,0,2.474,1.107,2.474,2.474c0,1.367-1.107,2.475-2.474,2.475s-2.474-1.107-2.474-2.475
			l0,0C11.921,1.181,13.028,0.075,14.393,0.073z M14.393,4.021c0.814,0,1.474-0.66,1.474-1.475c0-0.813-0.659-1.474-1.474-1.474
			c-0.814,0-1.474,0.66-1.474,1.474C12.92,3.361,13.579,4.02,14.393,4.021z"/>
		<circle fill="#D09A2D" cx="26.383" cy="2.547" r="1.974"/>
		<path fill="#D09A2D" d="M26.383,0.073c1.366,0,2.474,1.107,2.474,2.474c0,1.367-1.107,2.475-2.474,2.475s-2.474-1.107-2.474-2.475
			l0,0C23.911,1.181,25.017,0.075,26.383,0.073z M26.383,4.021c0.813,0,1.474-0.66,1.474-1.475c0-0.813-0.66-1.474-1.474-1.474
			s-1.474,0.66-1.474,1.474C24.909,3.361,25.57,4.02,26.383,4.021z"/>
	</g>
</g>
</svg>
