<?xml version="1.0" encoding="utf-8"?>
<!-- Generator: Adobe Illustrator 16.0.0, SVG Export Plug-In . SVG Version: 6.00 Build 0)  -->
<!DOCTYPE svg PUBLIC "-//W3C//DTD SVG 1.1//EN" "http://www.w3.org/Graphics/SVG/1.1/DTD/svg11.dtd">
<svg version="1.1" id="Layer_1" xmlns="http://www.w3.org/2000/svg" xmlns:xlink="http://www.w3.org/1999/xlink" x="0px" y="0px"
	 width="50px" height="50px" viewBox="0 0 50 50" enable-background="new 0 0 50 50" xml:space="preserve">
<g transform="translate(5088 3817.176)">
	<g id="XMLID_1_">
		<g>
			<path fill="#D09A2D" d="M-5042.839-3791.806v22.87c0,0.979-0.8,1.77-1.78,1.76h-12.43c-0.98,0.01-1.78-0.78-1.79-1.75v-13.51
				h-8.33v13.51c-0.01,0.97-0.8,1.76-1.78,1.75h-12.43c-0.98,0.01-1.78-0.78-1.79-1.75v-22.86l3.53-3.61
				c0.03,0.12,0.04,0.24,0.04,0.37v24.34h8.86v-13.51c0.01-0.98,0.81-1.761,1.79-1.761h11.9c0.979,0,1.77,0.78,1.78,1.761v13.51
				h8.869v-24c0-0.23,0.04-0.44,0.12-0.64L-5042.839-3791.806z"/>
			<path fill="#D09A2D" d="M-5042.839-3794.686v2.88l-3.44-3.52c0.25-0.67,0.9-1.15,1.66-1.15
				C-5043.629-3796.476-5042.839-3795.676-5042.839-3794.686z"/>
			<path fill="#D09A2D" d="M-5079.64-3795.396l-3.53,3.61v-3.24c0-0.99,0.8-1.79,1.79-1.79
				C-5080.529-3796.816-5079.81-3796.206-5079.64-3795.396z"/>
			<path fill="#D09A2D" d="M-5061.759-3816.636l23.18,23.72c0.74,0.79,0.78,2,0.09,2.83c-0.33,0.4-0.81,0.63-1.33,0.641
				c-0.47-0.011-0.92-0.2-1.239-0.54l-1.78-1.82v-2.88c0-0.99-0.79-1.79-1.78-1.79c-0.76,0-1.41,0.48-1.66,1.15l-16.72-17.12
				l-16.64,17.05c-0.17-0.81-0.89-1.42-1.74-1.42c-0.99,0-1.79,0.8-1.79,1.79v3.24l-1.76,1.8c-0.65,0.689-1.73,0.72-2.42,0.069
				c-0.06-0.05-0.11-0.109-0.16-0.17c-0.68-0.83-0.64-2.04,0.09-2.83l23.18-23.72c0.64-0.69,1.72-0.72,2.41-0.08
				C-5061.799-3816.686-5061.78-3816.666-5061.759-3816.636z"/>
		</g>
		<g>
		</g>
	</g>
</g>
</svg>
