<?xml version="1.0" encoding="utf-8"?>
<!-- Generator: Adobe Illustrator 16.0.0, SVG Export Plug-In . SVG Version: 6.00 Build 0)  -->
<!DOCTYPE svg PUBLIC "-//W3C//DTD SVG 1.1//EN" "http://www.w3.org/Graphics/SVG/1.1/DTD/svg11.dtd">
<svg version="1.1" id="Layer_1" xmlns="http://www.w3.org/2000/svg" xmlns:xlink="http://www.w3.org/1999/xlink" x="0px" y="0px"
	 width="50px" height="50.018px" viewBox="0 0 50 50.018" enable-background="new 0 0 50 50.018" xml:space="preserve">
<g transform="translate(-9282.882 -2634.294)">
	<path fill="#FFFFFF" d="M9308.403,2634.293c1.471-0.009,2.906,0.451,4.1,1.313c0.885,0.67,1.58,1.557,2.02,2.575
		c0.539,1.298,0.803,2.694,0.771,4.101v7.108h15.734c1.023,0,1.852,0.829,1.852,1.853v23.335c-0.006,5.294-4.297,9.583-9.592,9.588
		h-38.556c-1.021,0-1.852-0.829-1.852-1.852v-31.072c0-1.022,0.828-1.852,1.852-1.852c0,0,0,0,0,0h9.801l7.369-11.721
		c1.299-2.065,3.557-3.331,5.994-3.362C9308.014,2634.3,9308.184,2634.293,9308.403,2634.293z M9329.183,2653.099h-15.74
		c-1.021,0-1.852-0.828-1.852-1.851v-8.961c0-1.815-0.439-3.065-1.309-3.717c-0.553-0.381-1.211-0.581-1.883-0.574
		c-0.095,0-0.159,0-0.185,0.006c-0.072,0.011-0.145,0.015-0.217,0.013c-1.201-0.004-2.318,0.613-2.955,1.631l-7.912,12.587
		c-0.34,0.539-0.932,0.866-1.568,0.866h-8.977v27.369h36.7c3.25-0.003,5.883-2.636,5.889-5.885L9329.183,2653.099z"/>
	<path fill="#FFFFFF" d="M9295.594,2684.312c-1.061,0.043-1.954-0.779-2-1.839v-30.533c0.046-1.059,0.939-1.881,2-1.839
		c1.059-0.042,1.953,0.78,2,1.839v30.533C9297.547,2683.532,9296.652,2684.355,9295.594,2684.312z"/>
</g>
</svg>
