<?xml version="1.0" encoding="utf-8"?>
<!-- Generator: Adobe Illustrator 16.0.0, SVG Export Plug-In . SVG Version: 6.00 Build 0)  -->
<!DOCTYPE svg PUBLIC "-//W3C//DTD SVG 1.1//EN" "http://www.w3.org/Graphics/SVG/1.1/DTD/svg11.dtd">
<svg version="1.1" id="Layer_1" xmlns="http://www.w3.org/2000/svg" xmlns:xlink="http://www.w3.org/1999/xlink" x="0px" y="0px"
	 width="150px" height="150px" viewBox="0 0 150 150" enable-background="new 0 0 150 150" xml:space="preserve">
<circle fill="#D09B2C" cx="75" cy="75" r="75"/>
<g transform="translate(-9282.882 -2634.294)">
	<path fill="#FFFFFF" d="M9360.794,2657.687c2.738-0.016,5.412,0.84,7.633,2.444c1.647,1.248,2.942,2.901,3.761,4.795
		c1.004,2.417,1.494,5.017,1.437,7.637v13.235h29.298c1.906,0,3.449,1.543,3.449,3.452v43.452
		c-0.011,9.856-8.002,17.843-17.86,17.852h-71.795c-1.901,0-3.447-1.544-3.447-3.449v-57.858c0-1.902,1.542-3.448,3.447-3.448l0,0
		h18.25l13.722-21.825c2.419-3.846,6.622-6.203,11.161-6.261C9360.066,2657.699,9360.383,2657.687,9360.794,2657.687z
		 M9399.486,2692.704h-29.31c-1.901,0-3.447-1.541-3.447-3.446v-16.686c0-3.381-0.818-5.708-2.438-6.921
		c-1.028-0.711-2.255-1.082-3.506-1.069c-0.177,0-0.296,0-0.345,0.011c-0.135,0.02-0.269,0.027-0.404,0.023
		c-2.236-0.007-4.316,1.142-5.502,3.038l-14.732,23.438c-0.633,1.003-1.734,1.611-2.921,1.611h-16.715v50.961h68.341
		c6.049-0.004,10.952-4.906,10.963-10.955L9399.486,2692.704z"/>
	<path fill="#FFFFFF" d="M9336.94,2750.824c-1.975,0.08-3.639-1.449-3.725-3.424v-56.854c0.086-1.971,1.75-3.503,3.725-3.424
		c1.972-0.079,3.638,1.453,3.724,3.424v56.854C9340.578,2749.373,9338.912,2750.904,9336.94,2750.824z"/>
</g>
</svg>
