<?xml version="1.0" encoding="utf-8"?>
<!-- Generator: Adobe Illustrator 16.0.0, SVG Export Plug-In . SVG Version: 6.00 Build 0)  -->
<!DOCTYPE svg PUBLIC "-//W3C//DTD SVG 1.1//EN" "http://www.w3.org/Graphics/SVG/1.1/DTD/svg11.dtd">
<svg version="1.1" id="Layer_1" xmlns="http://www.w3.org/2000/svg" xmlns:xlink="http://www.w3.org/1999/xlink" x="0px" y="0px"
	 width="50px" height="50px" viewBox="0 0 50 50" enable-background="new 0 0 50 50" xml:space="preserve">
<g transform="translate(1.75 1.75)">
	<path fill="#D09A2D" d="M40.245,48.25c-4.273,0.135-7.852-3.209-8.006-7.481V0.076c-0.046-0.967,0.7-1.788,1.666-1.834
		c0.967-0.046,1.788,0.7,1.834,1.667c0.003,0.056,0.003,0.111,0,0.167v40.693c0.02,1.007,0.468,1.958,1.233,2.614
		c1.879,1.621,4.663,1.621,6.542,0c0.766-0.655,1.215-1.606,1.234-2.614V13.817c-0.046-0.966,0.7-1.787,1.666-1.833
		c0.967-0.046,1.788,0.7,1.834,1.667c0.003,0.056,0.003,0.111,0,0.167v26.952C48.096,45.042,44.518,48.385,40.245,48.25z"/>
	<path fill="#D09A2D" d="M39.954,48.25H6.098c-4.356-0.027-7.868-3.578-7.849-7.935V0.076c0.003-1.012,0.826-1.83,1.838-1.826h34.48
		c1.009-0.003,1.829,0.811,1.832,1.82c0.004,1.008-0.811,1.829-1.819,1.832c-0.004,0-0.009,0-0.013,0H1.925v38.414
		c-0.027,2.334,1.839,4.25,4.173,4.283h33.855c1.009-0.004,1.829,0.812,1.832,1.819c0.004,1.009-0.811,1.829-1.819,1.832
		C39.962,48.25,39.957,48.25,39.954,48.25L39.954,48.25z"/>
	<path fill="#D09A2D" d="M40.044,42.198c-0.992-0.027-1.774-0.853-1.75-1.845V3.759c-0.028-0.994,0.755-1.822,1.749-1.85
		c0,0,0,0,0.001,0c0.993,0.027,1.777,0.854,1.75,1.849c0,0,0,0,0,0.001v36.6C41.816,41.349,41.033,42.17,40.044,42.198z"/>
	<path fill="#D09A2D" d="M28.652,14.931H0c-0.966,0-1.75-0.784-1.75-1.75c0-0.967,0.784-1.75,1.75-1.75h28.652
		c0.965,0.001,1.748,0.784,1.748,1.75S29.617,14.93,28.652,14.931z"/>
	<path fill="#D09A2D" d="M28.652,25.183H0c-0.966,0-1.75-0.784-1.75-1.75c0-0.967,0.784-1.75,1.75-1.75h28.652
		c0.965,0.001,1.748,0.784,1.748,1.75S29.617,25.182,28.652,25.183z"/>
	<path fill="#D09A2D" d="M28.652,35.436H0c-0.966,0-1.75-0.783-1.75-1.75s0.784-1.75,1.75-1.75h28.652
		c0.965,0.001,1.748,0.784,1.748,1.75S29.617,35.435,28.652,35.436z"/>
</g>
</svg>
