<?xml version="1.0" encoding="utf-8"?>
<!-- Generator: Adobe Illustrator 16.0.0, SVG Export Plug-In . SVG Version: 6.00 Build 0)  -->
<!DOCTYPE svg PUBLIC "-//W3C//DTD SVG 1.1//EN" "http://www.w3.org/Graphics/SVG/1.1/DTD/svg11.dtd">
<svg version="1.1" id="Layer_1" xmlns="http://www.w3.org/2000/svg" xmlns:xlink="http://www.w3.org/1999/xlink" x="0px" y="0px"
	 width="50px" height="45px" viewBox="0 0 50 45" enable-background="new 0 0 50 45" xml:space="preserve">
<g transform="translate(2 2)">
	<path fill="#D09A2D" d="M45.936,2H0.065C-1.058,2.018-1.982,1.123-2,0c0.018-1.123,0.942-2.018,2.065-2h45.871
		C47.058-2.018,47.982-1.123,48,0C47.982,1.123,47.058,2.018,45.936,2z"/>
	<path fill="#D09A2D" d="M45.936,22.5H0.065c-1.123,0.018-2.047-0.878-2.065-2c0.018-1.123,0.942-2.018,2.065-2h45.871
		c1.122-0.018,2.047,0.877,2.064,2C47.982,21.623,47.058,22.518,45.936,22.5z"/>
	<path fill="#D09A2D" d="M23.917,43H0c-1.104,0-2-0.895-2-2c0-1.104,0.896-2,2-2h23.917c1.104,0,2,0.896,2,2
		C25.917,42.106,25.021,43,23.917,43z"/>
</g>
</svg>
