<svg xmlns="http://www.w3.org/2000/svg" xmlns:xlink="http://www.w3.org/1999/xlink" width="22.958" height="21.187" viewBox="0 0 22.958 21.187"><defs><style>.a{fill:#d09b2c;}.b{clip-path:url(#a);}</style><clipPath id="a"><rect class="a" width="22.958" height="21.187"/></clipPath></defs><g class="b"><path class="a" d="M22.958,239.381a3.208,3.208,0,0,1-.244.523,1.239,1.239,0,0,1-1.042.56c-.06,0-.119,0-.179,0q-10.008,0-20.017,0a1.338,1.338,0,0,1-1.325-.735,1.466,1.466,0,0,1-.141-.624q-.018-2.174,0-4.348a1.293,1.293,0,0,1,1.34-1.349q3.127-.012,6.254,0a.426.426,0,0,1,.265.122c.532.524,1.056,1.057,1.583,1.587a2.665,2.665,0,0,0,4.055.014c.528-.528,1.052-1.061,1.59-1.58a.55.55,0,0,1,.345-.142c1.958-.009,3.915-.006,5.873-.006.991,0,1.274.185,1.649,1.082Zm-2.651-2.436a.892.892,0,0,0-.881.885.883.883,0,0,0,1.766,0,.891.891,0,0,0-.885-.881m-3.53,0a.882.882,0,0,0-.878.884.9.9,0,0,0,.868.876.9.9,0,0,0,.894-.877.894.894,0,0,0-.884-.883" transform="translate(0 -219.284)"/><path class="a" d="M82.531,7.057c.657,0,1.283,0,1.91,0,.59,0,1.18,0,1.769.028a.754.754,0,0,1,.673.544.766.766,0,0,1-.132.856c-.06.067-.12.134-.183.2l-5.943,5.944a.9.9,0,0,1-1.484,0q-2.988-2.988-5.975-5.976a.855.855,0,0,1-.185-1.2.887.887,0,0,1,.83-.388q1.58,0,3.16,0h.267V6.774q0-2.869,0-5.738A.906.906,0,0,1,78.263,0q1.625,0,3.25,0a.9.9,0,0,1,1.018,1.019q0,2.869,0,5.738v.3" transform="translate(-68.404 -0.001)"/></g></svg>